<svg xmlns="http://www.w3.org/2000/svg" id="womb.fw-Page%204" viewBox="0 0 947 572" version="1.1" xml:space="preserve" x="0px" y="0px" width="947px" height="572px" background-color="#ffffff"><path d="M8 33L8 572 941 571C941 571 940 67 942 11 942.5541-4.5142 891 13 867 4 843-5 781 4 757 11 733 18 704 18 670 10 636 2 575 30 553 15 541.9037 7.4344 492.3959 13.0982 446.045 20.57 430.132 17.7131 397.0096 25.6286 374 17 350 8 265 13 241 20 217 27 210 22 176 14 142 6 134 34 112 19 90 4 8 33 8 33Z" fill="#F37F79"/></svg>