<?xml version="1.0" standalone="no"?>
<!-- Generator: Adobe Fireworks 10, Export SVG Extension by Aaron Beall (http://fireworks.abeall.com) . Version: 0.6.1  -->
<!DOCTYPE svg PUBLIC "-//W3C//DTD SVG 1.1//EN" "http://www.w3.org/Graphics/SVG/1.1/DTD/svg11.dtd">
<svg id="womb.fw-Page%204" viewBox="0 0 947 572" style="background-color:#ffffff" version="1.1"
	xmlns="http://www.w3.org/2000/svg" xmlns:xlink="http://www.w3.org/1999/xlink" xml:space="preserve"
	x="0px" y="0px" width="947px" height="572px"
>
	<g>
		<path d="M 8 33 L 8 572 L 941 571 C 941 571 940 67 942 11 C 942.5541 -4.5142 891 13 867 4 C 843 -5 781 4 757 11 C 733 18 704 18 670 10 C 636 2 575 30 553 15 C 541.9037 7.4344 492.3959 13.0982 446.045 20.57 C 430.132 17.7131 397.0096 25.6286 374 17 C 350 8 265 13 241 20 C 217 27 210 22 176 14 C 142 6 134 34 112 19 C 90 4 8 33 8 33 Z" fill="#ff0000"/>
	</g>
</svg>