<?xml version="1.0" encoding="UTF-8"?>
<svg width="50px" height="949px" viewBox="0 0 7 949" version="1.1" xmlns="http://www.w3.org/2000/svg" xmlns:xlink="http://www.w3.org/1999/xlink">
    <!-- Generator: Sketch 47.1 (45422) - http://www.bohemiancoding.com/sketch -->
    <title>Group 3</title>
    <desc>Created with Sketch.</desc>
    <defs></defs>
    <g id="design" stroke="none" stroke-width="1" fill="none" fill-rule="evenodd" opacity="0.05">
        <g id=".me-copy-6" transform="translate(-32.000000, -41.000000)" fill="#585F5B">
            <g id="DOTS" transform="translate(32.000000, 40.000000)">
                <g id="Group-3">
                    <circle id="Oval-5" cx="3.5" cy="4.5" r="3.5"></circle>
                    <circle id="Oval-5-Copy-3" cx="3.5" cy="54.5" r="3.5"></circle>
                    <circle id="Oval-5-Copy-15" cx="3.5" cy="104.5" r="3.5"></circle>
                    <circle id="Oval-5-Copy-13" cx="2.5" cy="153.5" r="2.5"></circle>
                    <circle id="Oval-5" cx="2.5" cy="203.5" r="2.5"></circle>
                    <circle id="Oval-5-Copy-3" cx="2.5" cy="253.5" r="2.5"></circle>
                    <circle id="Oval-5-Copy-15" cx="2.5" cy="303.5" r="2.5"></circle>
                    <circle id="Oval-5-Copy-13" cx="2.5" cy="353.5" r="2.5"></circle>
                    <circle id="Oval-5" cx="2.5" cy="403.5" r="2.5"></circle>
                    <circle id="Oval-5-Copy-3" cx="2.5" cy="453.5" r="2.5"></circle>
                    <circle id="Oval-5-Copy-15" cx="2.5" cy="503.5" r="2.5"></circle>
                    <circle id="Oval-5-Copy-13" cx="2.5" cy="553.5" r="2.5"></circle>
                    <circle id="Oval-5" cx="2.5" cy="603.5" r="2.5"></circle>
                    <circle id="Oval-5-Copy-3" cx="2.5" cy="653.5" r="2.5"></circle>
                    <circle id="Oval-5-Copy-85" cx="2" cy="703" r="2"></circle>
                    <circle id="Oval-5-Copy-84" cx="2" cy="753" r="2"></circle>
                    <circle id="Oval-5-Copy-139" cx="1.5" cy="801.5" r="1.5"></circle>
                    <circle id="Oval-5-Copy-138" cx="1.5" cy="851.5" r="1.5"></circle>
                    <circle id="Oval-5-Copy-193" cx="1" cy="899" r="1"></circle>
                    <circle id="Oval-5-Copy-192" cx="1" cy="949" r="1"></circle>
                </g>
            </g>
        </g>
    </g>
</svg>