<svg viewBox="0 0 706 255" xmlns="http://www.w3.org/2000/svg">
	<defs>
		<clipPath id="clip-svg-demo">
			<path d="M695.3 115.8c-2 8.8-5.2 19-9.7 30.2-4.4 11.4-9 19.7-14 25-7 7.5-10.8 6-11-4.7-.4-5.7 1.2-21.5 4.6-47.5.7-5.2.4-9.8-1-13.7-1-3.8-2.8-6.7-4.8-8.7-2-2-4.7-3.5-7.8-4.5-3-1-5.8-1.7-8-1.8-2.3-.2-4.5-.2-6.8 0-6.3 0-9.4-1.8-9-5.5.3-5-.4-9-2.3-11.7-2-2.7-4.2-4.3-6.8-5-2.6-.4-5.6-.4-9 0-3.6.7-6 1.2-7.3 1.6l-3.3 1.3c1.2 3 1.5 6 .8 9-.6 3-.7 6-.4 8.8.4 2.8 1.3 5.4 2.7 7.6 1.5 2.4 4.8 4.3 10 5.7 5 1.5 12 2.3 21 2.5-.4 3.4-1 8.2-2 14.4l-2.5 16.8c-.7 5-1.3 10.7-2 17-.6 6-.8 11.5-.5 16.2.3 4.6 1 9 2 13 1 4.2 2.7 7.4 5.2 9.8 2.5 2.3 5.7 3.5 9.5 3.7 5 .3 9.8-.7 14.4-3 4.8-2.3 9-5.4 12.5-9.2 3.6-3.8 7-8.4 10.5-13.8 3.4-5.3 6.2-10.6 8.6-16 2.3-5 4.5-10.6 6.7-16.3 2-5.7 3.7-10.6 4.8-14.5l3.3-11 1.5-5.3c.5-2-.2-3-2-3.5l-4.8.2-2.7 13zm-135.7-12.6c1 1.8 1.4 3.6 1 5.3-.2 1.8-.6 3.3-1.2 4.6-3.6 7.6-10.7 11-21 10.2.6-4.3 1.5-8 2.8-11.3 1.3-3.3 2.5-5.6 3.6-7 1-1.4 2.5-2.5 4-3.3 1.4-.7 2.5-1 3.2-1h2.4c2.5 0 4.3.8 5.2 2.5zM346 107.8c2.3-2.5 5.4-4.2 9-5.2 3.7-1 7-1.7 9.7-2 2.8-.5 5.3-.7 7.5-.7l1 11.3v.2l-.5.4c-5.8 6-12.2 10-19.3 12.2-7.8 2.2-11.6-.3-11.4-7.4 0-3.5 1.4-6.5 4-9zm28 99.7c-1 7.8-5 9.7-11.5 6-6.6-4-12.8-11.2-18.6-22-6-11.7 4-28 30.4-48.6.7 24 .7 44.5.2 61.3 0 1-.2 2.2-.5 3.2zm-179-45.3l-.5-1.5-.4-2c0-.6-.2-1-.3-1.6l-.7-5.4c0-3.6.2-7.5 1-11.6.8-3 1.7-6 2.8-8.3l1.5 2c4.7 6 8 11 10.4 14.3 2.2 3.4 4 7.3 5.6 11.8 1.5 4.4 1.7 8.6.5 12.4-1 3.7-4 4.6-9 3l-1-.7c-2.7-1.7-4.6-3.2-6-4.6-1.8-2.6-3.2-5-4-7.8zm-32-40.6c-15 16.2-26.7 25-35 26.2-7.7 1.2-10.7-5.3-9.2-19.3 13.4.5 22.6-3.4 27.6-11.4 3-4.8 4.5-9.3 4.2-13.2-.3-4-1.4-7.2-3.4-9.7-2-2.4-4.5-4-7.6-5-2.4-.8-5.4-1.2-9-1.2-3.4 0-7.5.5-12 1.7-4.7 1.2-9 3-13 5.7-4 2.6-7.7 6.5-11 11.7-3.3 5.2-5.6 11.4-7 18.6-.3 2.4-.6 4.7-.7 7-1.4 17 3.4 27.2 14.3 30.7 10.4 3.2 23.2 0 38.3-10 16.3-10.6 30-25.5 41.2-44.7 1 1.6 1.8 3.2 3 5 2.3 3.6 4.6 7 7 10l-.3.5c-.2 0-.2.2-.2.3-2.4 4.5-4.3 9-5.5 13.4-1.2 4.3-1.7 9-1.7 14 0 2.5.3 4.8.7 7 0 .6 0 1.2.2 1.6v1.5l.3.8v.5l.3.5v.7l.2 1c1.2 4.2 3.2 8 6 11.4 2 2.7 4.7 5 8 7.2 3 2 5.4 3 7.3 3.6 1.8.7 3.6 1.2 5.4 1.5h1c7 1.7 15.5 0 25.5-4.7 2.7-1.7 5-3.6 6.8-5.8 1.8-2 3-4.4 3.4-7 .5-2.5.7-5 .6-7.5 0-2.4-.8-5.3-2-8.7l-4-9c-1.3-2.5-3.2-5.7-5.6-9.6l-6.4-9.8c-1.7-2.7-4-6-7-10.2-3-4.2-5-7.5-6.6-10 2.8-2.4 6.4-4 11-4.5 4.3-.6 8.4-.6 12.2 0 4 .7 8 1.8 12.2 3.4l5.7 2-.7 7c-.7 7-1 14.3-.7 21.6 0 7.3 1.8 13.3 5 18.2 3 5 8 7.5 14.2 7.7 5.7.2 11.3-1.2 16.8-4s10.2-6.3 14.2-10.5 7.8-9 11.5-14.5l1.6-2.4c2 5.4 6.6 8.7 13.4 10 6.6 1 13.7-.2 21.2-4 7.4-3.7 13.6-8 18.7-13.2l.4 9.7c-36.8 26.5-51.2 47.8-43 64 4.7 10.6 10 19.7 15.6 27.4 5.7 7.6 10.7 13.2 15.2 16.7 4.4 3.5 9 6.2 13.5 8 4.6 2 8 3 10.2 3 2.2.3 4 .3 5.8 0 10 0 15.7-13 17.4-38.8 1-17 0-47.8-3.4-92 9-6 18-11 26.5-16l-.8 7.3c-1 8.2-1.6 16-2 23-.3 7.2 1 13 3.5 17.6 2.6 4.6 6.8 7 12.6 6.7 9.5-.3 15.7-6 18.5-17l2-7c1.5-6 3.2-11.7 5-17 .6-2 2-5.6 4-11 1-2.6 2-4.5 2.8-5.8 1-2 2-3.8 3-5l1.2-1.4c.7-.6 1.3-.8 1.7-.5.6.3 1 .7 1 1.3.2 1 .3 3.2.3 6.3l-.4 7.5c-.5 6.8-1 12-1 15.5s0 6.3.4 8.3c.7 2.5 1.3 4 1.7 4.6.5 1 1.2 1.6 2.2 2 .7.6 1.6 1 2.6 1h2.2v-.3h.7l1-.5 1-.4c.3 0 .6-.2.8-.4l.7-.5.8-.7c1.2-1 3-2.6 4.8-4.8 1.4-1.6 2.7-3.4 4-5.5l-.4 3.6c-1.2 17 3.6 27.2 14.4 30.7 10.5 3.2 23.3 0 38.4-10 17.7-11.6 32.5-28.3 44.2-50.2l-4.2-3.3c-2.6 5-8 12.4-16.7 22-15 16-26.6 25-35 26-7.6 1.3-10.6-5.2-9-19.2 13.3.5 22.5-3.4 27.4-11.4 3-4.8 4.5-9.3 4.2-13.2-.3-4-1.4-7.2-3.4-9.7-2-2.4-4.5-4-7.6-5-2.4-.8-5.4-1.2-9-1.2-3.4 0-7.5.5-12 1.7-4.7 1.2-9 3-13 5.7-1.5 1-3 2-4.4 3.5l-2.7-1.3-12.6 23.5c-2 3.3-4 6.4-6.4 9.2-2 2.2-3.4 3.4-3.8 3.6 0 .2-.3.3-.6.5l-.4.4c-.2 0-.4 0-.7.2h-.4c-.2 0-.3.2-.3.3h-.7l-.6.2h-.4l-.2-.2-.2-.2c-.2-.2-.4-1-.7-2-.2-1.3-.3-3.5-.3-6.8.3-3.7.6-6.3 1-8V117c0-2 .3-3.6.3-4.8 1-5.2 1.4-11 .8-17-.5-6.2-2.8-9.3-6.7-9.5-5.6 0-12 6.2-19.4 19v-1.2c.3-5.6 0-10.5-1-14.8-1-4.2-2.2-7.5-4-9.8-1.6-2.5-3.6-4.3-6-5.6-2.4-1.4-4.7-2.2-6.7-2.6-2.2-.3-4.3-.4-6.6-.3-2.2 0-3.8.3-4.6.4-1 0-1.5.2-2 .3 1.2 5 1.2 11 .2 18.3l-1.2 8.7c-2.2 1-4.5 2.3-7 3.7-7.2 3.8-14.2 7.7-21.2 11.6l-.6-11.2c-.4-5-1.4-9.5-3-13.2-1.3-3.8-3-6.6-5-8.5-1.8-2-4-3.4-6.7-4.6-2.6-1-5-1.7-7-2-2-.3-4.2-.3-6.4 0-2.2 0-3.7.3-4.5.4l-1.8.5c.6 2 1 7 1.7 14-2.4-1-7.5-1.2-15.4-.4-7.8 1-14.8 3.2-20.8 7-1.3.8-2.5 1.7-3.7 2.7l-1.7-.7-2 4c-2.6 3-4.7 6.2-6.4 10-.8 2-1.5 3.8-2 5.6-1.6 2.7-3.4 5.4-5.4 8.3-5 7.3-9.7 12.4-14.2 15.5-3.7 2.6-6.6 3.4-8.7 2.6-5-2-5.7-16-1.8-41.8.7-4.6 0-8.4-1.7-11.4-2-3-4-5-6.6-6-2.6-1-5.7-1.7-9.3-2-3.6-.2-6-.2-7.5 0l-3.4.6c.4 1.4.2 5.2-.8 11.4l-1 8.6c-1.8-1-4-2-6.4-3-3.6-1.3-7.5-2.5-11.6-3.5-4.2-1-8.8-1.2-14-.7-5 .5-10 2-14.3 4.3-11-17.8-15-31.2-11.2-40l-2.6.5c-1.8.3-3.8 1-6 2-2.4 1.3-5 2.7-7.6 4.3-2.7 1.6-5 3.8-7 6.7-1.8 2.8-3 6-4 9.5-.7 3.5-.3 8 1 13.2.7 2 1.5 4.3 2.5 6.6-3 4.8-8 11-15 18.8zm-22-18.4c1 1.8 1.4 3.6 1 5.3-.2 1.8-.6 3.3-1 4.6-3.8 7.6-11 11-21.3 10.2.7-4.3 1.7-8 3-11.3 1.2-3.3 2.4-5.6 3.5-7 1.2-1.4 2.5-2.5 4-3.3 1.4-.7 2.5-1 3.2-1h2.4c2.5 0 4.3.8 5.3 2.5zm152.2-48.4c0-4.4-1.6-8-4.7-11.2-3-3-6.8-4.7-11.2-4.7-4.4 0-8 1.5-11.2 4.6-3 3-4.6 6.8-4.6 11.2 0 4.4 1.6 8 4.7 11.2 3.2 3.2 7 4.7 11.3 4.7 4.4 0 8-1.5 11.2-4.7 3-3 4.7-6.8 4.7-11.2zM44.7 35.3c.2-.8.2-2 .2-3.4.4-5.4 0-10-1.2-14s-3-7-5-9.2c-2-2-4.5-3.8-7.4-5-3-1.3-5.7-2-8.2-2.5-2.4-.3-5-.4-7.8-.3-2.8 0-4.6.3-5.6.4l-2.4.4c1 3.4 1.2 9 .7 16.5L6.3 45.6C5.5 56.3 4.6 67.4 3.5 79 2.5 90.8 2 102.4 2 113.8c0 11.4.4 21.7 1.2 30.7.8 9 2.8 16.4 6 22 3 5.5 7 8.3 12.2 8 2.6 0 5.7-.6 9.5-2 8.8-3 17-10 24.5-21 7.5-10.8 13-23 17-36.8 3.8-13.7 6.4-27.3 8-40.7 1.4-13.5 1-25-1.6-34.4C76.3 30 72.3 25 66.6 24.3c-8-1-15.2 2.7-22 11zm-2.5 42.2c0-3.6.6-7.7 1.5-12.6.8-5 1.8-10 3-14.7 1-5 2.7-9 5-12.3 2.3-3.3 4.8-5 7.6-4.8 4.4.3 6.8 9 7 26 .5 16.8-1.5 35.4-6 55.7-4.3 20-10 34-17.5 41.7-2.7-10-3-34.6-1-74l.4-5.2z" fill="#fff"/>
		</clipPath>
        <clipPath id="bigd">
			<path d="M 60.5381 15.1161 C 61.4967 16.8417 61.8374 18.5675 61.5606 20.2932 C 61.2836 22.0189 60.8789 23.5073 60.3358 24.7477 C 56.7892 32.0605 49.9731 35.3717 39.8873 34.6815 C 40.5688 30.4103 41.5167 26.7108 42.7521 23.6045 C 43.977 20.4981 45.1378 18.2547 46.2242 16.8741 C 47.3105 15.4936 48.5778 14.4257 50.005 13.6707 C 51.4321 12.9157 52.4971 12.5274 53.1788 12.5274 L 55.426 12.5274 C 57.8755 12.5274 59.5796 13.3903 60.5381 15.1161 L 60.5381 15.1161 ZM 81.6044 33.0313 C 67.1519 48.908 55.9053 57.472 47.8643 58.7015 C 40.4943 59.8124 37.5655 53.535 39.0672 39.8587 C 52.0179 40.2794 60.8789 36.5474 65.6502 28.6738 C 68.6537 23.8417 70.0168 19.4951 69.7399 15.6337 C 69.4631 11.7725 68.3767 8.623 66.4704 6.2069 C 64.5533 3.7909 62.1038 2.1084 59.111 1.1376 C 56.7892 0.4473 53.935 0.0698 50.5269 0.0051 C 47.1187 -0.0596 43.1995 0.4904 38.769 1.6553 C 34.3385 2.831 30.1742 4.6969 26.2869 7.2423 C 22.3996 9.7986 18.853 13.6276 15.6579 18.7401 C 12.4522 23.8525 10.2369 29.925 9.0121 36.9572 C 8.5968 39.3086 8.3198 41.5952 8.1921 43.7955 C 6.9672 60.3625 11.6002 70.3718 22.1013 73.8232 C 32.1871 76.9943 44.5201 73.7585 59.111 64.0944 C 74.8166 53.734 88.0804 39.1572 98.8936 20.3662 C 99.7472 21.9309 95.1561 12.4632 96.1029 14.6628 C 93.2158 19.3611 88.3805 25.4826 81.6044 33.0313 L 81.6044 33.0313 Z" fill="#fff"/>
        </clipPath>
        <clipPath id="finalr">
              <path d="M 85.078 96.7293 C 84.7974 91.1941 86.3187 75.7018 89.6312 50.2309 C 90.3218 45.1173 90.0412 40.6523 88.8005 36.8468 C 87.5596 33.0413 85.9411 30.1764 83.9342 28.2304 C 81.9272 26.2952 79.4133 24.8033 76.3705 23.7655 C 73.3278 22.7275 70.7059 22.1437 68.5047 22.0032 C 66.2928 21.8735 64.0809 21.8735 61.8797 22.0032 C 55.6649 22.0032 52.6868 20.2086 52.9673 16.6085 C 53.3774 11.6246 52.6543 7.8191 50.7878 5.192 C 48.9211 2.5649 46.7093 0.9757 44.1629 0.4135 C 41.6056 -0.1378 38.6384 -0.1378 35.2504 0.4135 C 31.8624 0.9757 29.521 1.4621 28.2046 1.873 C 26.8883 2.2838 25.82 2.7054 25 3.1163 C 26.1006 6.0244 26.3488 8.9651 25.723 11.9381 C 25.0971 14.9111 24.9676 17.7761 25.313 20.5437 C 25.6582 23.3114 26.5215 25.8087 27.9025 28.025 C 29.2835 30.2412 32.4881 32.0791 37.527 33.5278 C 42.5659 34.9765 49.4391 35.7765 58.1465 35.9062 C 57.7256 39.2361 57.0674 43.9389 56.1719 50.0255 C 55.2764 56.1229 54.4886 61.6258 53.7981 66.534 C 53.1076 71.4423 52.4494 76.9451 51.8236 83.0317 C 51.1978 89.1183 51.0251 94.4481 51.3057 99.0104 C 51.5862 103.5727 52.2012 107.8648 53.1724 111.8864 C 54.1434 115.8865 55.8698 119.0325 58.3514 121.3245 C 60.8331 123.6056 63.9406 124.8164 67.6739 124.957 C 72.5078 125.2273 77.2014 124.2218 81.7547 121.9515 C 86.3079 119.6596 85.3477 107.2376 85.078 96.7293 Z" fill="#fff"/>
        </clipPath>
    </defs>	
	
	  <path id="clip-svg-designer" d="M695.3 115.8c-2 8.8-5.2 19-9.7 30.2-4.4 11.4-9 19.7-14 25-7 7.5-10.8 6-11-4.7-.4-5.7 1.2-21.5 4.6-47.5.7-5.2.4-9.8-1-13.7-1-3.8-2.8-6.7-4.8-8.7-2-2-4.7-3.5-7.8-4.5-3-1-5.8-1.7-8-1.8-2.3-.2-4.5-.2-6.8 0-6.3 0-9.4-1.8-9-5.5.3-5-.4-9-2.3-11.7-2-2.7-4.2-4.3-6.8-5-2.6-.4-5.6-.4-9 0-3.6.7-6 1.2-7.3 1.6l-3.3 1.3c1.2 3 1.5 6 .8 9-.6 3-.7 6-.4 8.8.4 2.8 1.3 5.4 2.7 7.6 1.5 2.4 4.8 4.3 10 5.7 5 1.5 12 2.3 21 2.5-.4 3.4-1 8.2-2 14.4l-2.5 16.8c-.7 5-1.3 10.7-2 17-.6 6-.8 11.5-.5 16.2.3 4.6 1 9 2 13 1 4.2 2.7 7.4 5.2 9.8 2.5 2.3 5.7 3.5 9.5 3.7 5 .3 9.8-.7 14.4-3 4.8-2.3 9-5.4 12.5-9.2 3.6-3.8 7-8.4 10.5-13.8 3.4-5.3 6.2-10.6 8.6-16 2.3-5 4.5-10.6 6.7-16.3 2-5.7 3.7-10.6 4.8-14.5l3.3-11 1.5-5.3c.5-2-.2-3-2-3.5l-4.8.2-2.7 13zm-135.7-12.6c1 1.8 1.4 3.6 1 5.3-.2 1.8-.6 3.3-1.2 4.6-3.6 7.6-10.7 11-21 10.2.6-4.3 1.5-8 2.8-11.3 1.3-3.3 2.5-5.6 3.6-7 1-1.4 2.5-2.5 4-3.3 1.4-.7 2.5-1 3.2-1h2.4c2.5 0 4.3.8 5.2 2.5zM346 107.8c2.3-2.5 5.4-4.2 9-5.2 3.7-1 7-1.7 9.7-2 2.8-.5 5.3-.7 7.5-.7l1 11.3v.2l-.5.4c-5.8 6-12.2 10-19.3 12.2-7.8 2.2-11.6-.3-11.4-7.4 0-3.5 1.4-6.5 4-9zm28 99.7c-1 7.8-5 9.7-11.5 6-6.6-4-12.8-11.2-18.6-22-6-11.7 4-28 30.4-48.6.7 24 .7 44.5.2 61.3 0 1-.2 2.2-.5 3.2zm-179-45.3l-.5-1.5-.4-2c0-.6-.2-1-.3-1.6l-.7-5.4c0-3.6.2-7.5 1-11.6.8-3 1.7-6 2.8-8.3l1.5 2c4.7 6 8 11 10.4 14.3 2.2 3.4 4 7.3 5.6 11.8 1.5 4.4 1.7 8.6.5 12.4-1 3.7-4 4.6-9 3l-1-.7c-2.7-1.7-4.6-3.2-6-4.6-1.8-2.6-3.2-5-4-7.8zm-32-40.6c-15 16.2-26.7 25-35 26.2-7.7 1.2-10.7-5.3-9.2-19.3 13.4.5 22.6-3.4 27.6-11.4 3-4.8 4.5-9.3 4.2-13.2-.3-4-1.4-7.2-3.4-9.7-2-2.4-4.5-4-7.6-5-2.4-.8-5.4-1.2-9-1.2-3.4 0-7.5.5-12 1.7-4.7 1.2-9 3-13 5.7-4 2.6-7.7 6.5-11 11.7-3.3 5.2-5.6 11.4-7 18.6-.3 2.4-.6 4.7-.7 7-1.4 17 3.4 27.2 14.3 30.7 10.4 3.2 23.2 0 38.3-10 16.3-10.6 30-25.5 41.2-44.7 1 1.6 1.8 3.2 3 5 2.3 3.6 4.6 7 7 10l-.3.5c-.2 0-.2.2-.2.3-2.4 4.5-4.3 9-5.5 13.4-1.2 4.3-1.7 9-1.7 14 0 2.5.3 4.8.7 7 0 .6 0 1.2.2 1.6v1.5l.3.8v.5l.3.5v.7l.2 1c1.2 4.2 3.2 8 6 11.4 2 2.7 4.7 5 8 7.2 3 2 5.4 3 7.3 3.6 1.8.7 3.6 1.2 5.4 1.5h1c7 1.7 15.5 0 25.5-4.7 2.7-1.7 5-3.6 6.8-5.8 1.8-2 3-4.4 3.4-7 .5-2.5.7-5 .6-7.5 0-2.4-.8-5.3-2-8.7l-4-9c-1.3-2.5-3.2-5.7-5.6-9.6l-6.4-9.8c-1.7-2.7-4-6-7-10.2-3-4.2-5-7.5-6.6-10 2.8-2.4 6.4-4 11-4.5 4.3-.6 8.4-.6 12.2 0 4 .7 8 1.8 12.2 3.4l5.7 2-.7 7c-.7 7-1 14.3-.7 21.6 0 7.3 1.8 13.3 5 18.2 3 5 8 7.5 14.2 7.7 5.7.2 11.3-1.2 16.8-4s10.2-6.3 14.2-10.5 7.8-9 11.5-14.5l1.6-2.4c2 5.4 6.6 8.7 13.4 10 6.6 1 13.7-.2 21.2-4 7.4-3.7 13.6-8 18.7-13.2l.4 9.7c-36.8 26.5-51.2 47.8-43 64 4.7 10.6 10 19.7 15.6 27.4 5.7 7.6 10.7 13.2 15.2 16.7 4.4 3.5 9 6.2 13.5 8 4.6 2 8 3 10.2 3 2.2.3 4 .3 5.8 0 10 0 15.7-13 17.4-38.8 1-17 0-47.8-3.4-92 9-6 18-11 26.5-16l-.8 7.3c-1 8.2-1.6 16-2 23-.3 7.2 1 13 3.5 17.6 2.6 4.6 6.8 7 12.6 6.7 9.5-.3 15.7-6 18.5-17l2-7c1.5-6 3.2-11.7 5-17 .6-2 2-5.6 4-11 1-2.6 2-4.5 2.8-5.8 1-2 2-3.8 3-5l1.2-1.4c.7-.6 1.3-.8 1.7-.5.6.3 1 .7 1 1.3.2 1 .3 3.2.3 6.3l-.4 7.5c-.5 6.8-1 12-1 15.5s0 6.3.4 8.3c.7 2.5 1.3 4 1.7 4.6.5 1 1.2 1.6 2.2 2 .7.6 1.6 1 2.6 1h2.2v-.3h.7l1-.5 1-.4c.3 0 .6-.2.8-.4l.7-.5.8-.7c1.2-1 3-2.6 4.8-4.8 1.4-1.6 2.7-3.4 4-5.5l-.4 3.6c-1.2 17 3.6 27.2 14.4 30.7 10.5 3.2 23.3 0 38.4-10 17.7-11.6 32.5-28.3 44.2-50.2l-4.2-3.3c-2.6 5-8 12.4-16.7 22-15 16-26.6 25-35 26-7.6 1.3-10.6-5.2-9-19.2 13.3.5 22.5-3.4 27.4-11.4 3-4.8 4.5-9.3 4.2-13.2-.3-4-1.4-7.2-3.4-9.7-2-2.4-4.5-4-7.6-5-2.4-.8-5.4-1.2-9-1.2-3.4 0-7.5.5-12 1.7-4.7 1.2-9 3-13 5.7-1.5 1-3 2-4.4 3.5l-2.7-1.3-12.6 23.5c-2 3.3-4 6.4-6.4 9.2-2 2.2-3.4 3.4-3.8 3.6 0 .2-.3.3-.6.5l-.4.4c-.2 0-.4 0-.7.2h-.4c-.2 0-.3.2-.3.3h-.7l-.6.2h-.4l-.2-.2-.2-.2c-.2-.2-.4-1-.7-2-.2-1.3-.3-3.5-.3-6.8.3-3.7.6-6.3 1-8V117c0-2 .3-3.6.3-4.8 1-5.2 1.4-11 .8-17-.5-6.2-2.8-9.3-6.7-9.5-5.6 0-12 6.2-19.4 19v-1.2c.3-5.6 0-10.5-1-14.8-1-4.2-2.2-7.5-4-9.8-1.6-2.5-3.6-4.3-6-5.6-2.4-1.4-4.7-2.2-6.7-2.6-2.2-.3-4.3-.4-6.6-.3-2.2 0-3.8.3-4.6.4-1 0-1.5.2-2 .3 1.2 5 1.2 11 .2 18.3l-1.2 8.7c-2.2 1-4.5 2.3-7 3.7-7.2 3.8-14.2 7.7-21.2 11.6l-.6-11.2c-.4-5-1.4-9.5-3-13.2-1.3-3.8-3-6.6-5-8.5-1.8-2-4-3.4-6.7-4.6-2.6-1-5-1.7-7-2-2-.3-4.2-.3-6.4 0-2.2 0-3.7.3-4.5.4l-1.8.5c.6 2 1 7 1.7 14-2.4-1-7.5-1.2-15.4-.4-7.8 1-14.8 3.2-20.8 7-1.3.8-2.5 1.7-3.7 2.7l-1.7-.7-2 4c-2.6 3-4.7 6.2-6.4 10-.8 2-1.5 3.8-2 5.6-1.6 2.7-3.4 5.4-5.4 8.3-5 7.3-9.7 12.4-14.2 15.5-3.7 2.6-6.6 3.4-8.7 2.6-5-2-5.7-16-1.8-41.8.7-4.6 0-8.4-1.7-11.4-2-3-4-5-6.6-6-2.6-1-5.7-1.7-9.3-2-3.6-.2-6-.2-7.5 0l-3.4.6c.4 1.4.2 5.2-.8 11.4l-1 8.6c-1.8-1-4-2-6.4-3-3.6-1.3-7.5-2.5-11.6-3.5-4.2-1-8.8-1.2-14-.7-5 .5-10 2-14.3 4.3-11-17.8-15-31.2-11.2-40l-2.6.5c-1.8.3-3.8 1-6 2-2.4 1.3-5 2.7-7.6 4.3-2.7 1.6-5 3.8-7 6.7-1.8 2.8-3 6-4 9.5-.7 3.5-.3 8 1 13.2.7 2 1.5 4.3 2.5 6.6-3 4.8-8 11-15 18.8zm-22-18.4c1 1.8 1.4 3.6 1 5.3-.2 1.8-.6 3.3-1 4.6-3.8 7.6-11 11-21.3 10.2.7-4.3 1.7-8 3-11.3 1.2-3.3 2.4-5.6 3.5-7 1.2-1.4 2.5-2.5 4-3.3 1.4-.7 2.5-1 3.2-1h2.4c2.5 0 4.3.8 5.3 2.5zm152.2-48.4c0-4.4-1.6-8-4.7-11.2-3-3-6.8-4.7-11.2-4.7-4.4 0-8 1.5-11.2 4.6-3 3-4.6 6.8-4.6 11.2 0 4.4 1.6 8 4.7 11.2 3.2 3.2 7 4.7 11.3 4.7 4.4 0 8-1.5 11.2-4.7 3-3 4.7-6.8 4.7-11.2zM44.7 35.3c.2-.8.2-2 .2-3.4.4-5.4 0-10-1.2-14s-3-7-5-9.2c-2-2-4.5-3.8-7.4-5-3-1.3-5.7-2-8.2-2.5-2.4-.3-5-.4-7.8-.3-2.8 0-4.6.3-5.6.4l-2.4.4c1 3.4 1.2 9 .7 16.5L6.3 45.6C5.5 56.3 4.6 67.4 3.5 79 2.5 90.8 2 102.4 2 113.8c0 11.4.4 21.7 1.2 30.7.8 9 2.8 16.4 6 22 3 5.5 7 8.3 12.2 8 2.6 0 5.7-.6 9.5-2 8.8-3 17-10 24.5-21 7.5-10.8 13-23 17-36.8 3.8-13.7 6.4-27.3 8-40.7 1.4-13.5 1-25-1.6-34.4C76.3 30 72.3 25 66.6 24.3c-8-1-15.2 2.7-22 11zm-2.5 42.2c0-3.6.6-7.7 1.5-12.6.8-5 1.8-10 3-14.7 1-5 2.7-9 5-12.3 2.3-3.3 4.8-5 7.6-4.8 4.4.3 6.8 9 7 26 .5 16.8-1.5 35.4-6 55.7-4.3 20-10 34-17.5 41.7-2.7-10-3-34.6-1-74l.4-5.2z" fill="#fff"/>
</svg>