<?xml version="1.0" standalone="no"?>
<!-- Generator: Adobe Fireworks 10, Export SVG Extension by Aaron Beall (http://fireworks.abeall.com) . Version: 0.6.1  -->
<!DOCTYPE svg PUBLIC "-//W3C//DTD SVG 1.1//EN" "http://www.w3.org/Graphics/SVG/1.1/DTD/svg11.dtd">
<svg id="Untitled-Page%201" viewBox="0 0 129 125" style="background-color:#ffffff00" version="1.1"
	xmlns="http://www.w3.org/2000/svg" xmlns:xlink="http://www.w3.org/1999/xlink" xml:space="preserve"
	x="0px" y="0px" width="129px" height="125px"
>
	<g id="Layer%201">
		<path id="_designer" d="M 85.078 96.7293 C 84.7974 91.1941 86.3187 75.7018 89.6312 50.2309 C 90.3218 45.1173 90.0412 40.6523 88.8005 36.8468 C 87.5596 33.0413 85.9411 30.1764 83.9342 28.2304 C 81.9272 26.2952 79.4133 24.8033 76.3705 23.7655 C 73.3278 22.7275 70.7059 22.1437 68.5047 22.0032 C 66.2928 21.8735 64.0809 21.8735 61.8797 22.0032 C 55.6649 22.0032 52.6868 20.2086 52.9673 16.6085 C 53.3774 11.6246 52.6543 7.8191 50.7878 5.192 C 48.9211 2.5649 46.7093 0.9757 44.1629 0.4135 C 41.6056 -0.1378 38.6384 -0.1378 35.2504 0.4135 C 31.8624 0.9757 29.521 1.4621 28.2046 1.873 C 26.8883 2.2838 25.82 2.7054 25 3.1163 C 26.1006 6.0244 26.3488 8.9651 25.723 11.9381 C 25.0971 14.9111 24.9676 17.7761 25.313 20.5437 C 25.6582 23.3114 26.5215 25.8087 27.9025 28.025 C 29.2835 30.2412 32.4881 32.0791 37.527 33.5278 C 42.5659 34.9765 49.4391 35.7765 58.1465 35.9062 C 57.7256 39.2361 57.0674 43.9389 56.1719 50.0255 C 55.2764 56.1229 54.4886 61.6258 53.7981 66.534 C 53.1076 71.4423 52.4494 76.9451 51.8236 83.0317 C 51.1978 89.1183 51.0251 94.4481 51.3057 99.0104 C 51.5862 103.5727 52.2012 107.8648 53.1724 111.8864 C 54.1434 115.8865 55.8698 119.0325 58.3514 121.3245 C 60.8331 123.6056 63.9406 124.8164 67.6739 124.957 C 72.5078 125.2273 77.2014 124.2218 81.7547 121.9515 C 86.3079 119.6596 85.3477 107.2376 85.078 96.7293 Z" fill="#ffffff"/>
	</g>
</svg>